<?xml version="1.0" standalone="no"?>
<!DOCTYPE svg PUBLIC "-//W3C//DTD SVG 20010904//EN"
 "http://www.w3.org/TR/2001/REC-SVG-20010904/DTD/svg10.dtd">
<svg version="1.0" xmlns="http://www.w3.org/2000/svg"
 width="400.000000pt" height="400.000000pt" viewBox="0 0 400.000000 400.000000"
 preserveAspectRatio="xMidYMid meet">
<metadata>
Created by potrace 1.11, written by Peter Selinger 2001-2013
</metadata>
<g transform="translate(0.000000,400.000000) scale(0.100000,-0.100000)"
fill="#000000" stroke="none">
<path d="M0 3115 l0 -885 123 61 c423 213 1213 549 1712 729 639 231 1230 407
2128 631 l37 10 0 169 0 170 -2000 0 -2000 0 0 -885z"/>
<path d="M3770 2670 l-25 -7 25 -4 c23 -4 23 -5 -7 -10 -18 -3 -30 -2 -27 3 3
4 -5 8 -18 8 -17 0 -19 -3 -9 -9 25 -16 -6 -21 -46 -7 -33 12 -42 12 -58 0
-10 -8 -39 -14 -64 -14 -55 0 -120 -21 -136 -44 -7 -9 -17 -16 -24 -16 -6 0
-11 -4 -11 -8 0 -5 -6 -9 -12 -9 -47 -3 -82 -13 -88 -24 -8 -13 -15 -15 -82
-24 -30 -4 -36 -2 -32 10 4 9 0 15 -8 15 -7 0 -14 -9 -14 -20 0 -11 4 -20 8
-20 20 0 5 -27 -19 -37 -25 -9 -22 -10 19 -6 25 3 55 0 65 -6 16 -9 14 -11
-15 -17 -22 -5 -31 -11 -28 -20 4 -10 -8 -18 -39 -26 -25 -7 -45 -16 -45 -21
0 -4 -4 -6 -9 -2 -6 3 -15 -4 -21 -16 -10 -17 -9 -20 2 -14 7 3 4 0 -6 -9 -10
-8 -24 -12 -30 -9 -6 4 -5 -1 3 -11 10 -11 22 -15 40 -11 14 3 40 7 56 10 17
2 46 7 65 10 23 4 30 3 22 -3 -11 -7 -8 -11 10 -15 12 -4 25 -2 26 3 2 6 8 8
13 4 5 -3 9 0 9 6 0 6 5 8 10 5 6 -3 10 0 10 8 0 17 -29 26 -85 28 l-40 1 45
21 c39 18 61 21 158 19 113 -2 160 6 112 19 -24 7 -23 7 6 8 17 1 44 8 60 16
16 8 70 16 124 19 52 2 116 8 142 12 38 5 49 4 53 -9 4 -9 14 -13 26 -10 16 5
17 8 7 22 -11 14 -11 14 3 4 9 -7 20 -9 24 -5 5 4 5 2 1 -5 -5 -9 3 -12 29
-11 20 1 31 4 25 8 -8 5 -6 9 6 14 13 5 15 9 6 18 -16 16 -15 28 3 28 12 0 15
14 15 70 0 54 -3 70 -14 70 -8 0 -17 -6 -20 -12 -3 -9 -9 -7 -20 6 -9 11 -16
14 -16 8 0 -22 -20 -12 -21 11 0 12 -3 16 -6 10 -2 -7 -13 -13 -23 -13 -10 0
-21 6 -23 13 -3 6 -6 2 -6 -11 -1 -13 -5 -20 -11 -17 -6 4 -8 11 -5 16 4 5 1
9 -4 9 -6 0 -11 -8 -11 -17 -1 -15 -2 -15 -13 3 -9 16 -18 19 -37 14z"/>
<path d="M3395 2661 c-11 -5 -23 -7 -27 -4 -5 2 -8 -3 -8 -11 0 -9 2 -16 5
-16 12 0 55 24 55 32 0 4 -1 8 -2 7 -2 0 -12 -4 -23 -8z"/>
<path d="M3050 2589 c0 -5 -7 -6 -15 -3 -8 4 -15 1 -15 -5 0 -14 27 -15 35 -1
4 7 12 7 25 0 13 -7 19 -6 23 3 3 8 -6 12 -24 13 -16 1 -29 -3 -29 -7z"/>
<path d="M2974 2550 c-4 -16 -13 -30 -21 -30 -7 0 -25 -7 -38 -16 -23 -15 -23
-17 -9 -40 13 -19 20 -22 34 -14 28 15 36 12 14 -6 -19 -15 -19 -16 0 -9 19 6
19 5 3 -13 -17 -19 -17 -19 5 -16 13 2 43 6 68 9 35 4 46 10 47 24 1 15 -4 18
-29 15 -17 -2 -28 -1 -24 3 4 5 26 8 49 8 31 0 42 4 42 15 0 8 4 18 8 21 11 8
-3 39 -18 39 -7 0 -35 -10 -62 -22 -26 -12 -60 -23 -76 -24 l-28 -2 26 20 c14
11 22 24 19 29 -3 6 2 17 12 24 18 14 18 14 1 15 -12 0 -19 -10 -23 -30z m33
-86 c-3 -3 -12 -4 -19 -1 -8 3 -5 6 6 6 11 1 17 -2 13 -5z"/>
<path d="M2911 2534 c-18 -21 -7 -29 18 -12 12 8 18 18 14 21 -9 10 -16 8 -32
-9z"/>
<path d="M2806 2473 c-3 -4 -12 -8 -19 -9 -32 -5 -43 -10 -58 -29 -10 -11 -16
-22 -14 -24 7 -7 83 35 94 52 11 17 10 23 -3 10z"/>
<path d="M2302 2383 c-28 -4 -31 -7 -21 -19 6 -8 9 -18 5 -21 -4 -4 -11 -1
-16 7 -7 10 -10 11 -10 3 0 -23 2 -28 11 -25 5 1 9 -2 9 -8 0 -5 -6 -10 -14
-10 -9 0 -12 -8 -8 -25 3 -19 0 -25 -14 -26 -11 0 -4 -6 16 -13 36 -13 70 -10
70 6 0 5 4 7 9 4 5 -3 11 3 14 14 4 14 10 18 22 14 16 -6 16 -5 -1 14 -9 12
-22 18 -27 15 -6 -4 -8 0 -4 10 3 9 2 19 -3 22 -16 10 -11 33 8 38 21 6 0 5
-46 0z"/>
<path d="M1970 2370 c0 -6 7 -10 15 -10 8 0 15 2 15 4 0 2 -7 6 -15 10 -8 3
-15 1 -15 -4z"/>
<path d="M1949 2347 c11 -15 11 -17 -2 -17 -8 0 -17 -6 -20 -12 -3 -10 -8 -10
-21 1 -12 10 -20 11 -24 4 -4 -5 -17 -15 -30 -22 -12 -7 -20 -17 -16 -23 4 -7
-2 -8 -17 -3 -23 7 -23 7 -4 -8 l20 -16 -20 2 c-12 1 -20 -4 -20 -13 0 -8 -4
-18 -10 -22 -6 -5 -4 -8 4 -8 16 0 -35 -47 -61 -56 -9 -2 -20 -19 -23 -36 -9
-38 12 -81 34 -73 13 5 14 4 4 -6 -7 -7 -13 -18 -13 -23 0 -6 5 -5 12 2 16 16
31 15 22 0 -5 -9 -2 -9 9 1 9 7 17 10 17 5 0 -5 4 -4 8 2 8 11 56 31 110 44
25 6 35 5 39 -6 3 -8 9 -11 14 -8 5 3 7 9 4 14 -3 4 7 7 22 5 16 -1 32 2 36 9
6 8 10 8 14 -2 3 -9 9 -10 18 -2 11 9 130 21 190 19 46 -1 75 4 100 19 25 14
19 15 -22 3 -18 -5 -35 -6 -38 -2 -2 5 -26 6 -53 3 -30 -2 -58 1 -73 9 -13 7
-30 14 -37 15 -20 4 -25 11 -18 29 3 9 10 14 15 10 6 -3 15 4 21 15 11 20 11
20 -20 2 -25 -16 -39 -18 -86 -10 -30 5 -59 6 -65 3 -5 -4 -9 -1 -9 5 0 6 -4
8 -10 5 -5 -3 -10 3 -10 14 0 13 5 18 13 15 7 -2 29 2 48 10 27 12 29 15 12
16 -18 0 -22 6 -21 30 1 17 4 30 8 30 4 0 10 9 13 19 4 17 2 18 -14 8 -15 -9
-24 -9 -41 2 -21 13 -22 13 -9 -2z m11 -247 c0 -5 -4 -10 -9 -10 -6 0 -13 5
-16 10 -3 6 1 10 9 10 9 0 16 -4 16 -10z"/>
<path d="M2035 2340 c-3 -5 -1 -10 4 -10 6 0 11 5 11 10 0 6 -2 10 -4 10 -3 0
-8 -4 -11 -10z"/>
<path d="M2582 2310 c-13 -11 -18 -21 -12 -25 5 -3 10 -1 10 5 0 7 6 10 14 7
10 -4 14 0 13 14 -1 10 -1 19 -2 19 0 -1 -10 -9 -23 -20z"/>
<path d="M2655 2320 c-3 -5 -13 -7 -23 -4 -14 5 -15 4 -2 -5 20 -14 27 -14 34
4 6 17 0 20 -9 5z"/>
<path d="M3290 2319 c0 -4 6 -9 13 -12 8 -3 14 0 14 7 0 7 -6 13 -14 13 -7 0
-13 -4 -13 -8z"/>
<path d="M2677 2313 c-4 -3 -7 -15 -7 -25 0 -13 -8 -18 -30 -18 -16 0 -30 -5
-30 -11 0 -6 6 -9 14 -6 7 3 46 -1 87 -9 94 -18 92 -18 86 6 -5 18 4 25 26 21
5 -1 5 3 2 9 -4 6 -13 9 -21 6 -7 -3 -16 -1 -19 4 -3 5 0 10 7 13 7 2 2 2 -12
0 -14 -3 -27 -8 -30 -12 -9 -15 -70 -19 -70 -5 0 9 6 11 18 7 15 -6 15 -5 3
10 -15 19 -15 19 -24 10z"/>
<path d="M2903 2306 c-4 -5 -1 -6 5 -2 7 4 12 3 12 -2 0 -5 11 -7 25 -4 14 2
25 7 25 11 0 10 -61 7 -67 -3z"/>
<path d="M1529 2282 c20 -14 -1 -23 -44 -17 -25 3 -38 0 -42 -10 -3 -8 -9 -12
-15 -9 -5 3 -4 13 4 22 13 17 -53 -37 -103 -84 -14 -13 -30 -24 -35 -24 -5 0
-2 5 6 10 9 6 10 10 3 10 -6 0 -15 -5 -18 -10 -4 -6 -11 -7 -17 -4 -6 4 -9 3
-5 -2 8 -14 -20 -47 -34 -38 -8 4 -10 3 -5 -4 5 -8 -1 -12 -16 -12 -41 0 -57
-3 -52 -11 5 -9 -57 -48 -86 -54 -11 -2 -33 -13 -49 -24 -16 -12 -32 -21 -35
-21 -9 0 -103 -102 -140 -152 -24 -33 -26 -40 -12 -35 15 6 17 5 7 -7 -9 -11
-7 -15 9 -19 11 -3 23 -1 26 4 3 5 23 9 44 9 21 0 42 5 45 10 4 6 12 4 22 -5
17 -18 40 -14 35 5 -2 11 0 11 12 1 12 -10 15 -9 20 6 8 24 71 54 85 40 5 -5
30 -8 55 -6 34 3 46 0 50 -11 3 -12 4 -12 5 2 1 18 53 34 72 22 7 -4 9 -3 6 3
-4 6 10 18 33 27 51 20 66 21 50 1 -7 -8 -16 -12 -21 -9 -5 3 -16 -2 -25 -10
-14 -15 -13 -16 15 -16 17 0 39 4 49 9 9 6 44 22 77 36 33 15 80 37 105 49 25
13 58 26 73 30 22 5 26 10 18 20 -6 7 -9 15 -7 17 2 2 -8 4 -22 4 -15 1 -30
-3 -33 -8 -3 -5 -12 6 -19 23 -13 33 -11 38 25 54 6 3 4 9 -4 14 -11 8 -10 12
8 21 22 12 19 36 -3 28 -6 -3 -12 3 -12 13 0 10 3 17 6 15 3 -2 12 0 20 6 8 5
10 9 4 9 -6 0 -11 7 -11 15 0 10 6 14 16 10 8 -3 4 5 -9 18 -24 22 -50 25 -50
6 0 -4 7 -6 15 -3 8 4 15 1 15 -6 0 -6 -4 -8 -10 -5 -5 3 -10 0 -10 -7 0 -10
-2 -10 -9 0 -4 8 -11 13 -15 13 -22 -3 -27 1 -21 19 4 14 2 20 -9 20 -8 0 -23
3 -33 6 -13 4 -15 3 -4 -4z m47 -221 c-6 -10 18 -34 26 -26 2 3 5 -2 5 -10 0
-8 -4 -12 -9 -9 -4 3 -13 2 -20 -2 -8 -5 -2 -12 17 -20 l30 -13 -42 1 c-34 1
-43 5 -43 19 0 10 7 25 16 33 8 9 13 16 9 16 -3 0 -3 5 0 10 3 6 8 10 11 10 3
0 3 -4 0 -9z m-657 -222 c-11 -11 -30 -19 -42 -17 -20 3 -20 5 8 20 42 24 59
22 34 -3z"/>
<path d="M2840 2280 c0 -5 5 -10 10 -10 6 0 10 5 10 10 0 6 -4 10 -10 10 -5 0
-10 -4 -10 -10z"/>
<path d="M2879 2271 c9 -6 10 -10 2 -14 -8 -4 -8 -5 1 -3 20 4 21 26 1 26 -14
0 -15 -2 -4 -9z"/>
<path d="M2576 2263 c-11 -11 -7 -20 9 -20 8 0 15 4 15 8 0 11 -16 20 -24 12z"/>
<path d="M2265 2050 c3 -5 11 -10 16 -10 6 0 7 5 4 10 -3 6 -11 10 -16 10 -6
0 -7 -4 -4 -10z"/>
<path d="M246 1999 c4 -7 0 -9 -13 -5 -26 8 -48 -17 -37 -41 7 -16 8 -15 12 5
2 15 9 22 17 18 8 -3 17 -1 20 4 3 5 12 7 19 4 8 -3 17 0 22 7 4 7 3 10 -4 5
-6 -3 -13 -2 -17 4 -3 5 -11 10 -16 10 -6 0 -7 -5 -3 -11z"/>
<path d="M233 1951 c-3 -12 -17 -23 -33 -26 -16 -3 -34 -13 -41 -21 -10 -12
-7 -12 17 1 16 8 37 12 46 9 10 -3 26 -1 35 5 17 10 17 10 -2 11 -15 0 -16 3
-7 12 15 15 15 28 1 28 -6 0 -13 -9 -16 -19z"/>
<path d="M630 1909 c0 -5 -4 -7 -10 -4 -5 3 -10 1 -10 -5 0 -7 -6 -10 -12 -8
-7 3 -19 -1 -26 -9 -7 -7 -34 -13 -58 -13 -25 0 -53 -4 -63 -9 -13 -8 -18 -6
-18 5 0 9 6 13 14 10 8 -3 11 -2 8 3 -3 5 0 13 6 17 8 4 9 3 5 -4 -4 -7 -3
-12 3 -12 17 0 21 18 5 24 -20 8 -39 8 -31 0 3 -3 -20 -19 -51 -36 -45 -24
-61 -27 -75 -19 -19 12 -43 4 -71 -25 -9 -8 -16 -11 -16 -5 0 6 -4 11 -10 11
-5 0 -9 -10 -7 -21 1 -12 -5 -24 -13 -26 -10 -3 -11 -2 -3 4 6 5 11 17 10 28
-1 14 4 20 16 19 9 -1 17 2 17 7 0 5 5 9 10 9 6 0 20 9 32 20 12 11 17 20 11
20 -6 0 -16 -6 -22 -13 -6 -8 -35 -22 -65 -32 -30 -10 -53 -22 -50 -26 2 -4
-8 -12 -23 -18 l-28 -11 28 4 c40 5 19 -13 -27 -24 -21 -4 -34 -4 -30 1 3 5 0
9 -6 9 -6 0 -13 -7 -16 -15 -4 -8 -14 -15 -23 -15 -13 0 -13 -2 -2 -9 11 -7 9
-11 -8 -20 -19 -10 -21 -20 -21 -91 0 -71 2 -79 18 -73 9 4 23 15 30 25 8 10
19 18 25 17 7 -2 26 3 42 11 67 29 92 38 125 44 27 5 32 4 22 -6 -20 -20 -14
-28 14 -18 15 6 43 10 63 10 79 -1 86 0 74 8 -9 5 3 17 36 37 26 16 58 43 69
59 18 25 101 68 86 45 -3 -5 2 -9 10 -9 9 0 21 9 28 20 7 11 18 20 25 20 6 0
14 4 17 9 6 10 -37 6 -56 -5 -25 -14 -1 7 48 41 49 35 41 48 -13 20 -48 -25
-125 -57 -129 -52 -2 2 23 19 56 37 56 31 74 50 50 50 -5 0 -10 -5 -10 -11z
m-126 -118 c7 -11 -19 -22 -61 -26 -18 -2 -47 -15 -66 -29 -19 -14 -39 -26
-45 -26 -7 0 -12 -7 -12 -15 0 -16 -12 -20 -23 -8 -12 12 51 63 69 56 13 -5
15 -3 9 7 -5 9 -4 11 3 6 7 -4 12 -3 12 3 0 6 16 13 35 17 19 3 38 10 41 15 7
12 31 12 38 0z m-354 -31 c0 -5 -10 -10 -22 -9 -22 0 -22 1 -3 9 11 5 21 9 23
9 1 1 2 -3 2 -9z m235 -60 c-3 -5 -12 -10 -18 -10 -7 0 -6 4 3 10 19 12 23 12
15 0z"/>
<path d="M3453 1853 c-29 -15 -51 -29 -49 -31 3 -2 13 1 24 7 12 6 39 11 61
11 22 0 43 4 46 10 3 5 0 7 -9 4 -8 -3 -16 1 -18 10 -2 13 -11 11 -55 -11z"/>
<path d="M1266 1842 c-3 -5 1 -9 9 -9 8 0 12 4 9 9 -3 4 -7 8 -9 8 -2 0 -6 -4
-9 -8z"/>
<path d="M3265 1830 c-16 -7 -17 -9 -3 -9 9 -1 20 4 23 9 7 11 7 11 -20 0z"/>
<path d="M3303 1802 c-39 -20 -44 -36 -7 -22 14 6 36 10 49 10 12 0 25 7 29
15 7 20 -29 19 -71 -3z"/>
<path d="M3197 1789 c-11 -6 -43 -9 -77 -5 -32 3 -73 1 -89 -4 -20 -5 -31 -5
-31 1 0 6 -5 7 -11 3 -8 -4 -7 -9 2 -14 8 -5 -6 -11 -37 -16 -27 -4 -41 -10
-31 -12 48 -10 -22 -32 -104 -32 -16 0 -29 -5 -29 -10 0 -6 -13 -4 -30 5 -33
17 -70 20 -70 5 0 -7 -6 -7 -18 -1 -20 11 -74 3 -84 -13 -5 -7 -8 -7 -8 2 0 7
-4 11 -10 7 -5 -3 -7 -12 -4 -19 4 -10 -14 -15 -68 -22 -40 -4 -82 -9 -93 -9
-11 -1 -19 -7 -18 -13 2 -8 -10 -12 -32 -12 -19 0 -35 5 -35 10 0 6 -7 10 -16
10 -13 0 -14 -3 -5 -13 8 -11 4 -13 -22 -9 -27 4 -29 6 -12 13 41 16 -71 9
-126 -8 -30 -9 -65 -17 -79 -18 -110 -9 -168 -19 -192 -31 -14 -8 -35 -11 -44
-7 -13 5 -15 3 -9 -8 7 -11 6 -12 -6 -3 -15 13 -165 12 -177 -1 -4 -3 -7 -14
-7 -23 0 -21 -69 -30 -90 -12 -10 8 -19 8 -34 -2 -11 -7 -24 -9 -28 -5 -4 5
-1 12 7 17 11 7 8 10 -13 10 -15 0 -36 -8 -47 -18 -18 -17 -17 -17 25 -18 24
-1 56 -4 70 -8 l27 -7 -24 -19 c-14 -10 -37 -22 -51 -25 -38 -10 -97 3 -97 20
0 8 -5 15 -10 15 -6 0 -9 -5 -8 -11 2 -6 -7 -15 -18 -19 -18 -7 -21 -5 -17 11
4 14 0 19 -16 19 -12 0 -21 -6 -21 -15 0 -8 5 -15 10 -15 6 0 10 -4 10 -10 0
-15 -29 -12 -46 5 -14 13 -14 16 1 21 13 5 14 9 4 15 -7 4 -21 2 -32 -6 -10
-7 -28 -10 -39 -7 -17 4 -20 2 -15 -12 5 -12 3 -16 -5 -14 -7 3 -19 -9 -28
-26 -9 -18 -28 -34 -50 -42 -33 -12 -27 -19 13 -14 16 1 17 -2 7 -19 -13 -25
-26 -27 -38 -5 -10 18 -93 17 -99 -2 -2 -6 10 -8 32 -6 32 4 35 2 32 -19 -2
-13 -7 -23 -10 -21 -4 1 -13 2 -19 2 -9 0 -8 4 2 10 13 8 12 10 -2 10 -10 0
-18 -4 -18 -9 0 -6 -18 -9 -40 -8 -26 2 -36 -1 -30 -7 6 -6 10 -13 10 -17 0
-8 -49 -19 -109 -25 -25 -2 -47 -7 -50 -11 -3 -5 -21 -9 -40 -10 -52 -4 -93
-25 -87 -45 2 -10 1 -20 -4 -23 -13 -8 -103 -8 -137 -1 -26 6 -33 4 -33 -8 0
-9 -7 -16 -15 -16 -9 0 -12 6 -8 16 4 12 0 15 -18 14 -51 -4 -62 -1 -49 15 10
12 7 15 -13 20 -25 7 -77 -18 -77 -35 0 -5 -9 -6 -20 -3 -11 3 -18 9 -15 13 2
4 -6 12 -18 17 -19 9 -24 7 -34 -14 -10 -21 -9 -25 10 -33 13 -5 16 -9 7 -10
-12 0 -11 -3 3 -11 26 -15 20 -29 -12 -29 -16 0 -31 -5 -33 -12 -5 -13 -101
-13 -125 0 -21 12 5 31 48 37 31 4 58 27 39 33 -6 2 -8 8 -4 13 3 5 0 9 -5 9
-6 0 -11 9 -11 20 0 17 -3 18 -26 9 -15 -5 -28 -8 -29 -7 -1 2 -7 13 -13 24
-10 18 -8 24 11 37 19 14 20 16 4 16 -10 1 -15 6 -12 11 4 6 11 7 17 4 6 -4 8
-2 4 4 -3 5 0 12 6 15 7 2 1 4 -13 3 -18 -1 -25 -5 -21 -15 3 -8 1 -12 -5 -8
-6 4 -8 -3 -5 -18 2 -14 0 -25 -6 -25 -26 0 -32 -72 -32 -391 l0 -328 33 6
c34 6 32 -3 -5 -21 -23 -12 -23 -13 -26 -265 -2 -240 -2 -253 15 -246 23 10
41 10 78 2 29 -7 30 -7 6 6 -14 8 -19 17 -13 21 6 3 13 0 15 -6 3 -8 20 2 47
30 23 23 46 39 52 36 7 -5 8 -2 4 5 -5 7 -15 10 -23 7 -8 -3 -12 -2 -9 3 3 5
32 12 63 16 39 5 52 10 39 14 -17 7 -16 9 10 30 19 15 36 20 52 16 15 -3 21
-2 18 4 -4 6 6 17 21 25 15 8 39 27 52 41 23 25 23 25 2 25 -12 0 -21 5 -21
10 0 7 -6 7 -19 0 -27 -14 -36 -13 -22 3 6 8 8 17 4 21 -4 4 2 9 14 12 12 3
23 14 26 25 3 10 13 19 22 19 25 0 105 50 105 66 0 18 -9 18 -30 -1 -15 -14
-18 -14 -23 -1 -4 10 4 17 26 22 52 11 73 12 87 4 7 -5 24 -4 36 1 18 6 26 4
32 -7 7 -13 13 -14 30 -5 25 13 45 14 38 2 -11 -17 39 1 64 24 14 12 36 21 50
21 14 -1 28 6 31 14 3 8 17 15 30 15 17 0 24 5 23 18 -2 25 15 21 42 -10 l23
-27 26 24 c14 13 28 20 32 17 3 -4 1 -7 -5 -7 -7 0 -12 -9 -12 -20 0 -21 15
-27 25 -10 4 6 14 8 23 6 10 -3 24 -1 32 4 10 6 11 10 3 10 -7 0 -13 5 -13 11
0 5 5 7 10 4 6 -3 10 -2 10 3 0 16 -52 21 -89 8 -38 -13 -71 -11 -71 5 0 5 8
10 18 10 9 1 22 2 27 4 6 1 25 3 43 3 17 1 32 7 32 12 0 6 -6 10 -13 9 -24 -3
-37 1 -37 12 0 5 5 7 10 4 6 -4 18 -1 26 6 11 9 18 9 32 -4 16 -15 26 -15 89
-3 66 12 126 13 163 1 9 -3 7 1 -4 10 -11 8 -18 16 -15 18 52 38 127 50 113
18 -11 -28 -9 -44 6 -49 8 -3 12 -2 9 2 -13 13 36 54 63 54 38 -1 53 -20 37
-50 -7 -13 -12 -27 -11 -32 2 -5 -6 -6 -16 -4 -21 6 -61 -12 -60 -27 0 -5 -8
-14 -18 -20 -11 -5 -21 -11 -23 -12 -4 -2 14 -20 41 -41 15 -12 22 -10 51 12
19 14 40 26 48 26 10 -1 9 -4 -3 -11 -20 -11 -24 -34 -8 -44 6 -3 23 3 39 14
34 24 79 24 94 0 8 -13 16 -15 35 -8 13 5 27 7 32 4 5 -3 10 0 12 6 2 6 25 13
51 16 36 4 48 2 53 -10 4 -12 11 -13 35 -5 24 8 27 13 18 24 -7 8 -7 14 -1 14
15 0 21 94 7 124 -6 13 -5 17 3 12 6 -3 15 2 21 11 9 15 12 16 20 4 7 -10 5
-18 -7 -27 -14 -10 -14 -16 -4 -38 7 -16 20 -26 32 -26 11 0 20 -7 20 -15 0
-10 10 -13 35 -11 32 2 34 1 29 -23 -4 -22 -4 -23 6 -9 6 10 20 18 30 18 11 0
20 6 20 13 0 8 3 9 8 1 9 -14 91 -11 119 5 12 6 31 11 43 11 12 0 18 4 15 10
-4 6 1 7 11 3 13 -5 15 -3 9 8 -6 11 -5 12 6 1 18 -16 29 -15 29 3 0 9 9 15
25 15 15 0 25 6 25 14 0 22 -19 30 -26 12 -9 -22 -26 -8 -19 15 4 10 3 19 -2
20 -4 0 -18 2 -30 5 -16 3 -23 -1 -23 -11 0 -8 -9 -15 -19 -15 -11 0 -21 -4
-23 -10 -4 -14 -66 -31 -73 -19 -4 5 1 9 9 9 29 0 17 51 -14 63 -10 3 -7 6 9
6 20 1 21 3 11 16 -11 13 -9 15 10 12 13 -2 28 -10 34 -18 13 -17 96 -26 96
-10 0 17 21 13 35 -6 7 -9 19 -14 29 -10 20 8 21 37 0 37 -8 0 -12 -5 -9 -10
8 -13 -1 -13 -24 2 -11 7 -26 8 -37 3 -34 -15 -55 -13 -70 9 -8 11 -16 19 -19
16 -8 -9 -45 30 -44 47 0 11 3 13 6 6 2 -7 13 -13 24 -13 10 0 19 -6 19 -14 0
-9 7 -12 20 -9 16 4 18 8 9 20 -10 12 -8 13 13 9 29 -5 56 8 39 18 -6 4 -8 13
-5 19 5 8 3 8 -7 0 -18 -17 -29 -16 -29 2 0 8 -7 15 -15 15 -8 0 -15 4 -15 9
0 6 10 7 23 4 12 -3 38 -6 57 -5 31 1 33 -1 18 -12 -13 -9 -17 -23 -14 -45 3
-32 26 -69 26 -43 0 7 7 12 15 12 8 0 15 -7 15 -15 0 -18 36 -6 81 26 22 16
27 17 23 5 -3 -9 -1 -16 4 -16 6 0 13 8 15 17 4 16 5 16 6 1 1 -12 14 -17 59
-20 32 -2 60 1 64 7 8 12 48 16 48 5 0 -8 42 -6 100 6 33 7 34 6 20 -11 -10
-13 -5 -11 18 5 28 21 34 22 42 10 7 -12 12 -12 22 -2 9 9 9 12 0 12 -7 0 -12
5 -12 11 0 6 9 8 23 3 12 -4 33 -7 47 -8 20 -1 25 4 24 21 0 18 6 24 33 29 18
3 40 3 49 0 9 -4 23 -1 30 5 9 8 38 10 81 6 40 -3 60 -1 52 4 -15 10 -7 12 31
9 14 -1 29 -6 34 -11 6 -5 24 -9 40 -9 24 0 27 -3 16 -10 -8 -5 -13 -10 -10
-10 50 -7 93 -4 97 7 7 19 47 16 65 -4 15 -17 12 -20 -38 -43 -30 -14 -54 -28
-54 -31 0 -13 47 -27 61 -18 10 6 6 9 -16 9 l-30 1 38 20 c21 11 42 17 47 14
10 -6 29 73 22 92 -2 6 -11 14 -20 17 -10 2 0 2 21 -1 22 -3 37 -1 37 5 0 7
10 5 27 -3 19 -10 29 -11 34 -3 4 6 20 9 35 6 26 -3 29 -1 31 26 3 42 11 45
111 50 21 1 54 35 46 48 -4 6 -17 8 -30 5 -20 -3 -23 -1 -19 14 4 11 0 19 -12
22 -11 3 -7 5 12 7 17 1 40 3 53 6 13 2 21 0 18 -4 -3 -5 15 -8 40 -8 l44 0 0
308 c0 285 -4 332 -25 298 -4 -6 -15 -8 -25 -5 -12 4 -22 -1 -29 -12 -6 -10
-11 -13 -11 -6 0 12 -9 11 -63 -2 -18 -5 -35 -2 -52 9 -21 14 -25 14 -32 1 -6
-11 -19 -13 -46 -8 -27 4 -35 9 -27 18 6 8 6 15 -2 23 -14 14 -38 16 -38 3 0
-6 -12 -6 -27 -2 -26 6 -41 6 -133 -3 -19 -1 -46 -3 -60 -4 -14 -1 -38 -14
-53 -28 -25 -23 -42 -27 -145 -37 -64 -7 -104 -13 -88 -15 l29 -4 -29 -17
c-23 -14 -46 -17 -108 -14 -45 2 -84 -1 -91 -7 -7 -6 -17 -10 -21 -9 -5 1 -11
0 -14 -1 -3 -1 -57 -4 -120 -6 -63 -2 -126 -6 -140 -9 -20 -4 -22 -3 -10 5 15
11 -7 9 -72 -6 -23 -5 -26 -4 -21 15 4 16 1 21 -13 21 -31 0 0 21 37 25 19 2
66 7 104 11 39 4 89 16 112 26 23 11 50 18 60 17 10 -2 29 4 43 13 14 10 45
20 70 24 35 6 40 9 25 15 -19 7 -18 8 3 8 12 1 22 -5 22 -11 0 -9 2 -10 8 -2
5 9 185 64 208 64 2 0 4 9 4 20 0 22 -7 24 -33 9z m-172 -44 c-34 -16 -84 -20
-69 -6 11 11 41 19 74 19 24 0 24 0 -5 -13z m-345 -63 c0 -5 -13 -9 -30 -9
-16 0 -27 4 -24 9 3 4 16 8 30 8 13 0 24 -4 24 -8z m105 -21 c-12 -12 -103
-27 -93 -16 7 7 60 22 88 24 9 1 10 -2 5 -8z m-235 -21 c0 -5 -5 -10 -11 -10
-5 0 -7 5 -4 10 3 6 8 10 11 10 2 0 4 -4 4 -10z m-70 -60 c-25 -19 -88 -31
-95 -19 -3 3 10 10 28 14 l32 8 -35 7 c-28 6 -23 7 29 7 64 1 65 1 41 -17z
m-1275 -140 c3 -5 -1 -10 -10 -10 -9 0 -13 5 -10 10 3 6 8 10 10 10 2 0 7 -4
10 -10z m89 -51 c-6 -11 -24 -2 -24 11 0 5 7 7 15 4 8 -4 12 -10 9 -15z m-92
-1 c-7 -7 -16 -7 -28 0 -14 8 -13 10 10 10 18 0 24 -4 18 -10z m285 -14 c-3
-3 -12 -4 -19 -1 -8 3 -5 6 6 6 11 1 17 -2 13 -5z m40 0 c-3 -3 -12 -4 -19 -1
-8 3 -5 6 6 6 11 1 17 -2 13 -5z m1231 -18 c-7 -8 -15 -12 -17 -11 -5 6 10 25
20 25 5 0 4 -6 -3 -14z m-48 -27 c-37 -10 -70 -10 -70 0 0 5 14 9 30 9 17 -1
33 2 37 5 3 4 11 3 17 0 6 -4 0 -10 -14 -14z m500 -31 c0 -6 9 -8 20 -5 11 3
20 2 20 -2 0 -14 -36 -36 -65 -39 -16 -2 -40 -8 -53 -14 -18 -10 -25 -9 -31 1
-6 10 -11 9 -24 -3 -11 -11 -18 -13 -23 -5 -8 13 13 29 39 29 10 0 20 7 24 16
3 9 12 13 21 9 9 -3 13 -3 9 1 -4 4 -2 13 3 19 12 14 60 8 60 -7z m-2213 -14
c-3 -3 -12 -4 -19 -1 -8 3 -5 6 6 6 11 1 17 -2 13 -5z m2673 -28 c-32 -29
-100 -39 -100 -15 0 6 5 7 10 4 6 -3 10 -2 10 4 0 10 26 17 70 20 21 1 22 -1
10 -13z m-134 -11 c-11 -8 -22 -12 -25 -9 -6 6 19 24 34 24 6 -1 1 -7 -9 -15z
m-496 -5 c0 -5 -5 -10 -11 -10 -5 0 -7 5 -4 10 3 6 8 10 11 10 2 0 4 -4 4 -10z
m675 0 c-3 -5 -12 -10 -18 -10 -7 0 -6 4 3 10 19 12 23 12 15 0z m-3380 -106
c-27 -35 -39 -41 -50 -24 -4 6 -1 9 6 8 7 -2 13 7 13 22 0 14 9 32 21 42 17
14 21 14 28 2 6 -10 0 -27 -18 -50z m350 46 c3 -5 -1 -10 -9 -10 -9 0 -16 5
-16 10 0 6 4 10 9 10 6 0 13 -4 16 -10z m3193 -47 c-39 -10 -16 -24 30 -19 26
3 38 3 27 0 -11 -4 -25 -10 -31 -15 -5 -4 -20 -6 -32 -2 -26 6 -172 -26 -172
-39 0 -4 -18 -5 -40 -2 -33 5 -43 3 -54 -11 -11 -15 -18 -16 -42 -8 -33 11
-94 10 -112 -1 -7 -4 -21 -5 -30 -1 -13 6 -9 11 23 25 22 10 52 19 67 19 15 1
29 5 33 10 3 5 17 8 31 5 34 -6 227 14 233 25 9 12 32 19 61 19 16 0 19 -2 8
-5z m-260 -10 c-10 -2 -26 -2 -35 0 -10 3 -2 5 17 5 19 0 27 -2 18 -5z m-439
-57 c-12 -10 -60 -16 -54 -6 3 5 18 10 32 10 15 0 24 -2 22 -4z m29 -49 c15 3
28 9 30 13 2 5 12 5 23 3 16 -4 6 -11 -38 -26 -62 -21 -108 -51 -108 -70 0 -7
-17 -14 -39 -18 -21 -3 -42 -12 -47 -20 -5 -8 -9 -10 -9 -6 0 5 -5 5 -11 1 -8
-4 -7 -9 2 -15 11 -7 10 -9 -5 -9 -14 0 -17 5 -13 23 5 20 4 19 -14 -5 -12
-16 -26 -28 -32 -28 -7 0 -18 -9 -25 -20 -12 -20 -42 -28 -42 -12 0 5 -7 9
-15 9 -11 0 -12 -4 -4 -14 9 -9 8 -13 0 -13 -7 0 -9 -4 -6 -10 3 -5 -1 -10
-10 -10 -11 0 -15 5 -12 15 10 24 -11 27 -33 5 -19 -19 -20 -19 -20 -1 0 22
-27 22 -41 0 -7 -11 -9 -10 -9 4 0 11 9 21 20 24 11 3 20 9 20 14 0 5 16 9 35
9 39 0 83 17 105 41 8 9 21 14 28 12 6 -3 12 0 12 6 0 6 18 14 40 17 43 7 60
21 40 34 -8 5 -7 9 6 14 13 5 24 0 36 -16 16 -22 16 -23 0 -30 -15 -6 -15 -7
1 -7 11 -1 21 8 24 19 3 11 12 20 19 20 8 0 14 5 14 10 0 6 7 10 15 10 8 0 18
12 22 28 5 19 8 22 11 9 3 -13 10 -16 30 -10z m-373 -67 c3 -5 -1 -10 -10 -10
-9 0 -13 5 -10 10 3 6 8 10 10 10 2 0 7 -4 10 -10z m-253 -72 c-7 -7 -12 -8
-12 -2 0 14 12 26 19 19 2 -3 -1 -11 -7 -17z m-99 -8 c4 -16 2 -18 -13 -10
-15 8 -17 6 -13 -13 3 -12 2 -19 -2 -15 -5 4 -15 2 -24 -4 -9 -7 -13 -8 -8 -3
4 4 0 17 -10 27 -15 17 -15 18 5 18 11 0 24 5 27 10 10 17 32 11 38 -10z m47
11 c0 -5 -3 -11 -7 -14 -5 -2 -3 -3 2 -2 6 1 19 -1 30 -6 17 -6 15 -8 -11 -8
-35 -1 -45 5 -37 25 6 16 23 19 23 5z m90 -7 c0 -8 -4 -12 -10 -9 -5 3 -10 10
-10 16 0 5 5 9 10 9 6 0 10 -7 10 -16z m-391 2 c-2 -2 -29 -6 -59 -9 -36 -4
-46 -3 -30 3 25 8 97 13 89 6z m471 -12 c0 -8 4 -13 9 -9 5 3 12 1 16 -5 13
-21 -60 -16 -81 5 -14 13 -13 15 3 15 11 0 25 -6 32 -12 11 -11 13 -10 8 5 -4
9 -2 17 3 17 6 0 10 -7 10 -16z m730 -9 c-7 -9 -15 -13 -17 -11 -7 7 7 26 19
26 6 0 6 -6 -2 -15z m-442 -13 c2 -7 -2 -10 -12 -6 -9 3 -16 1 -16 -6 0 -6 -5
-8 -10 -5 -8 5 -7 11 1 21 13 16 31 14 37 -4z m-388 -62 c0 -5 -2 -10 -4 -10
-3 0 -8 5 -11 10 -3 6 -1 10 4 10 6 0 11 -4 11 -10z m-553 -76 c-3 -3 -12 -4
-19 -1 -8 3 -5 6 6 6 11 1 17 -2 13 -5z m143 -35 c6 -10 9 -19 6 -19 -9 0 -36
31 -36 41 0 14 18 1 30 -22z m-46 5 c5 -14 4 -15 -9 -4 -17 14 -19 20 -6 20 5
0 12 -7 15 -16z m-12 -30 c-2 -5 -10 -8 -19 -6 -10 2 -14 -2 -10 -11 3 -8 0
-20 -6 -26 -8 -8 -8 -11 1 -11 7 0 12 -5 12 -11 0 -5 -4 -7 -10 -4 -5 3 -10 1
-10 -4 0 -22 -18 -10 -22 14 -3 15 -1 22 5 18 6 -4 8 0 4 10 -3 10 -2 17 3 17
6 0 10 12 10 26 0 25 1 26 23 12 12 -9 21 -19 19 -24z m-1353 -13 c7 -5 10
-14 7 -20 -11 -17 -26 -13 -19 6 5 13 2 15 -11 10 -10 -4 -15 -3 -11 3 8 12
16 12 34 1z m-431 -26 c53 5 55 -10 3 -19 -41 -6 -101 -35 -101 -49 0 -5 -4
-5 -10 -2 -19 12 -10 45 15 57 14 6 25 16 25 21 0 5 5 5 13 -1 7 -6 32 -9 55
-7z m82 5 c0 -5 -7 -10 -15 -10 -8 0 -15 5 -15 10 0 6 7 10 15 10 8 0 15 -4
15 -10z m53 -12 c-3 -18 -11 -23 -33 -23 -23 0 -26 3 -17 14 6 7 20 17 32 21
11 5 21 9 21 9 1 1 -1 -9 -3 -21z m34 15 c-3 -5 19 -8 49 -8 30 0 54 -3 54 -8
0 -5 7 -4 15 3 8 6 19 9 25 5 6 -4 17 -2 24 4 10 9 15 8 19 -3 3 -8 -2 -20
-11 -28 -16 -12 -16 -11 -2 6 14 18 13 19 -3 13 -11 -4 -31 -10 -45 -13 -15
-4 -33 -14 -41 -23 -13 -15 -13 -15 -8 2 7 18 -5 22 -52 18 -34 -3 -52 6 -45
24 3 8 10 15 16 15 5 0 7 -3 5 -7z m-317 -34 c0 -5 6 -7 13 -3 9 6 9 5 0 -7
-7 -8 -27 -16 -45 -17 -19 -1 -44 -4 -57 -7 -35 -6 -20 17 20 31 43 16 69 17
69 3z m150 -19 c0 -5 -5 -10 -11 -10 -5 0 -7 5 -4 10 3 6 8 10 11 10 2 0 4 -4
4 -10z m740 -4 c0 -3 -4 -8 -10 -11 -5 -3 -10 -1 -10 4 0 6 5 11 10 11 6 0 10
-2 10 -4z m730 -30 c0 -2 -7 -7 -16 -10 -8 -3 -12 -2 -9 4 6 10 25 14 25 6z
m-60 -16 c0 -5 -9 -10 -21 -10 -11 0 -17 5 -14 10 3 6 13 10 21 10 8 0 14 -4
14 -10z m-1494 -62 c4 -7 3 -8 -4 -4 -7 4 -12 2 -12 -4 0 -6 -5 -8 -10 -5 -11
7 -4 25 10 25 5 0 12 -5 16 -12z m-46 -8 c0 -5 -4 -10 -10 -10 -5 0 -10 5 -10
10 0 6 5 10 10 10 6 0 10 -4 10 -10z"/>
<path d="M3171 1284 c0 -11 3 -14 6 -6 3 7 2 16 -1 19 -3 4 -6 -2 -5 -13z"/>
<path d="M3625 1250 c-3 -6 1 -7 9 -4 18 7 21 14 7 14 -6 0 -13 -4 -16 -10z"/>
<path d="M3515 1780 c3 -5 8 -10 11 -10 2 0 4 5 4 10 0 6 -5 10 -11 10 -5 0
-7 -4 -4 -10z"/>
<path d="M1287 1759 c7 -7 15 -10 18 -7 3 3 -2 9 -12 12 -14 6 -15 5 -6 -5z"/>
<path d="M1450 1749 c0 -5 5 -7 10 -4 6 3 10 8 10 11 0 2 -4 4 -10 4 -5 0 -10
-5 -10 -11z"/>
<path d="M897 1744 c-4 -4 -7 -16 -7 -26 0 -14 7 -18 33 -16 32 3 57 18 57 35
0 11 -73 16 -83 7z"/>
<path d="M529 1713 c-13 -9 -27 -21 -30 -25 -3 -5 -10 -8 -15 -7 -18 5 -62
-24 -57 -36 2 -8 -5 -16 -18 -20 -16 -5 -18 -9 -8 -15 7 -5 20 -5 28 -1 9 5
51 8 95 9 43 0 83 5 89 11 8 8 6 11 -7 11 -10 0 -14 5 -10 11 4 6 -3 6 -17 -2
-13 -8 -33 -14 -44 -15 -11 -1 -28 -5 -39 -9 -16 -7 -17 -6 -7 14 7 12 17 18
23 15 6 -4 8 -3 5 3 -9 15 19 36 35 27 7 -4 10 -4 6 1 -4 4 -3 14 3 21 16 20
-6 25 -32 7z"/>
<path d="M3986 1714 c-4 -9 -4 -19 -1 -22 2 -3 7 3 11 12 4 9 4 19 1 22 -2 3
-7 -3 -11 -12z"/>
<path d="M820 1703 c-36 -5 -60 -19 -60 -35 0 -6 11 -3 25 6 13 9 35 16 49 16
14 0 28 5 31 10 3 6 3 9 -2 8 -4 0 -24 -3 -43 -5z"/>
<path d="M698 1693 c-16 -2 -28 -9 -28 -14 0 -6 -5 -7 -12 -3 -6 4 -8 3 -5 -3
7 -12 87 6 87 19 0 4 -3 7 -7 7 -5 -1 -20 -4 -35 -6z"/>
<path d="M3865 1680 c-14 -7 -8 -8 20 -3 22 3 42 7 44 9 9 8 -45 2 -64 -6z"/>
<path d="M1180 1640 c-20 -12 -10 -19 14 -10 11 3 15 9 10 13 -6 3 -16 2 -24
-3z"/>
<path d="M1210 1615 c-8 -9 -8 -15 -2 -15 12 0 26 19 19 26 -2 2 -10 -2 -17
-11z"/>
<path d="M1270 1614 c0 -14 3 -14 15 -4 8 7 15 14 15 16 0 2 -7 4 -15 4 -8 0
-15 -7 -15 -16z"/>
<path d="M1101 1605 c-6 -9 -7 -17 -2 -42 1 -5 5 -1 11 7 6 9 5 17 -3 22 -12
8 12 13 41 9 6 -1 12 3 12 8 0 13 -49 10 -59 -4z"/>
<path d="M1152 1569 c-12 -19 -11 -19 7 -10 26 14 36 31 19 31 -7 0 -19 -9
-26 -21z"/>
<path d="M592 1564 c-14 -16 -5 -18 17 -5 7 5 9 11 5 14 -5 3 -15 -1 -22 -9z"/>
<path d="M780 1567 c0 -23 15 -36 30 -27 11 7 12 10 2 10 -7 0 -11 4 -8 9 3 5
-1 11 -9 15 -8 3 -15 0 -15 -7z"/>
<path d="M1045 1570 c3 -5 8 -10 11 -10 2 0 4 5 4 10 0 6 -5 10 -11 10 -5 0
-7 -4 -4 -10z"/>
<path d="M247 1559 c7 -7 15 -10 18 -7 3 3 -2 9 -12 12 -14 6 -15 5 -6 -5z"/>
<path d="M2748 1563 c6 -2 18 -2 25 0 6 3 1 5 -13 5 -14 0 -19 -2 -12 -5z"/>
<path d="M2868 1563 c6 -2 18 -2 25 0 6 3 1 5 -13 5 -14 0 -19 -2 -12 -5z"/>
<path d="M1292 1538 c7 -19 31 -21 53 -4 19 15 18 15 -18 16 -27 0 -37 -4 -35
-12z"/>
<path d="M230 1530 c0 -6 7 -10 15 -10 8 0 15 2 15 4 0 2 -7 6 -15 10 -8 3
-15 1 -15 -4z"/>
<path d="M715 1489 c-18 -7 -17 -8 6 -8 14 -1 30 -6 36 -12 6 -6 17 -8 23 -4
9 6 7 11 -6 18 -25 15 -35 16 -59 6z"/>
<path d="M384 1474 c-18 -14 -18 -15 4 -4 12 6 22 13 22 15 0 8 -5 6 -26 -11z"/>
<path d="M370 1440 c-8 -5 -12 -11 -9 -14 2 -3 11 -1 19 4 8 5 12 11 9 14 -2
3 -11 1 -19 -4z"/>
<path d="M401 1381 c-6 -10 -8 -21 -5 -24 3 -3 -2 -4 -12 -3 -9 0 -19 -5 -21
-11 -3 -8 4 -13 17 -13 17 0 21 -4 16 -17 -4 -10 4 -6 18 10 17 18 31 25 48
22 24 -5 88 20 88 34 0 5 -7 11 -15 15 -8 3 -15 2 -15 -3 0 -17 -43 -28 -67
-17 -12 6 -23 14 -23 19 0 14 -19 7 -29 -12z"/>
<path d="M905 1350 c-3 -5 -1 -10 4 -10 6 0 11 5 11 10 0 6 -2 10 -4 10 -3 0
-8 -4 -11 -10z"/>
<path d="M215 1311 c-10 -18 17 -23 33 -7 15 15 15 16 -5 16 -12 0 -24 -4 -28
-9z"/>
<path d="M295 1309 c-16 -4 -25 -7 -18 -8 7 -1 10 -8 6 -18 -6 -16 -5 -16 10
-4 9 7 17 10 17 5 0 -5 5 -1 11 9 14 23 11 25 -26 16z"/>
<path d="M362 1274 c-7 -8 -8 -14 -3 -14 10 0 25 19 20 25 -2 1 -10 -3 -17
-11z"/>
<path d="M210 1259 c0 -11 4 -18 9 -15 5 4 11 2 13 -4 2 -5 9 -6 17 -1 19 12
6 41 -19 41 -14 0 -20 -7 -20 -21z"/>
<path d="M461 1222 c-8 -15 -5 -18 21 -20 30 -2 52 13 42 30 -10 15 -53 8 -63
-10z"/>
<path d="M2315 741 c-3 -5 -1 -12 5 -16 5 -3 10 1 10 9 0 18 -6 21 -15 7z"/>
<path d="M2575 740 c8 -12 -37 -30 -63 -25 -34 6 -57 -19 -32 -35 9 -5 6 -10
-9 -15 -11 -3 -21 -11 -21 -17 0 -14 118 -7 152 9 15 7 33 10 41 7 8 -3 18 -1
21 5 7 11 37 3 47 -12 7 -10 29 -1 29 11 0 4 -14 13 -30 20 -17 8 -27 18 -24
23 4 6 10 6 18 0 8 -7 17 -6 26 1 13 8 12 9 -1 5 -9 -3 -21 -1 -27 5 -6 6 -16
5 -30 -3 -18 -11 -27 -10 -62 9 -22 12 -38 17 -35 12z"/>
<path d="M3816 705 c4 -8 10 -15 15 -15 5 0 9 7 9 15 0 8 -7 15 -15 15 -9 0
-12 -6 -9 -15z"/>
<path d="M2835 680 c-3 -5 -2 -10 4 -10 5 0 13 5 16 10 3 6 2 10 -4 10 -5 0
-13 -4 -16 -10z"/>
<path d="M2871 686 c2 -2 14 -9 27 -15 18 -10 22 -9 22 4 0 10 -9 15 -27 15
-14 0 -24 -2 -22 -4z"/>
<path d="M2948 678 c8 -8 17 -8 34 0 22 10 21 11 -11 11 -27 1 -32 -2 -23 -11z"/>
<path d="M3430 660 c-8 -5 -11 -12 -7 -16 4 -4 15 0 24 9 18 18 8 23 -17 7z"/>
<path d="M3495 659 c-4 -6 -5 -13 -2 -16 7 -7 27 6 27 18 0 12 -17 12 -25 -2z"/>
<path d="M1285 590 c3 -5 8 -10 11 -10 2 0 4 5 4 10 0 6 -5 10 -11 10 -5 0 -7
-4 -4 -10z"/>
<path d="M1170 580 c-12 -8 -9 -10 13 -10 16 0 26 4 22 10 -8 12 -16 12 -35 0z"/>
<path d="M1975 554 c-19 -20 -19 -30 1 -38 27 -10 39 -7 26 6 -17 17 -15 26 6
30 16 3 16 4 0 10 -10 4 -24 1 -33 -8z"/>
<path d="M2948 542 c5 -28 -14 -44 -42 -36 -15 5 -18 3 -13 -10 4 -11 1 -16
-9 -16 -10 0 -14 6 -10 15 3 10 -1 15 -12 16 -9 0 -25 2 -34 4 -10 2 -18 -1
-18 -6 0 -5 6 -9 13 -9 9 0 13 -11 12 -30 -2 -31 18 -42 28 -16 4 10 15 13 32
10 15 -3 24 -1 21 5 -4 5 3 7 16 3 l21 -5 -22 -19 -23 -18 26 0 c15 0 25 4 22
9 -3 5 3 20 14 34 15 18 17 27 8 30 -10 3 -9 9 4 23 20 22 12 39 -18 40 -16 0
-20 -5 -16 -24z"/>
<path d="M3238 553 c7 -3 16 -2 19 1 4 3 -2 6 -13 5 -11 0 -14 -3 -6 -6z"/>
<path d="M2740 505 c0 -8 7 -15 15 -15 8 0 15 4 15 9 0 5 -7 11 -15 15 -9 3
-15 0 -15 -9z"/>
<path d="M1390 499 c0 -5 5 -7 10 -4 6 3 10 8 10 11 0 2 -4 4 -10 4 -5 0 -10
-5 -10 -11z"/>
<path d="M2759 464 c-8 -10 -7 -12 9 -9 13 2 22 -3 25 -16 5 -19 27 -27 27 -9
0 6 -4 10 -10 10 -5 0 -7 6 -4 14 7 18 -32 28 -47 10z"/>
<path d="M1830 460 c-8 -5 -12 -11 -9 -14 3 -3 14 1 25 9 21 16 8 20 -16 5z"/>
<path d="M1735 436 c-87 -29 -98 -35 -85 -51 9 -11 9 -15 1 -15 -7 0 -32 -17
-56 -37 l-44 -36 21 -19 c12 -10 25 -18 29 -18 4 0 7 -9 6 -20 -1 -16 -7 -20
-27 -18 -16 2 -24 -2 -22 -10 1 -8 -2 -11 -9 -6 -8 4 -9 3 -5 -4 4 -7 14 -12
22 -12 10 0 14 -8 12 -22 -3 -20 2 -23 32 -26 19 -2 43 -12 53 -23 10 -11 22
-17 28 -14 5 4 9 -1 9 -9 0 -21 41 -32 54 -14 6 8 20 18 31 23 18 7 18 9 2 12
-9 3 -15 8 -12 13 3 4 -4 6 -15 3 -25 -7 -26 13 -1 27 23 12 90 7 120 -9 28
-16 48 -3 24 15 -10 7 -13 14 -7 14 7 0 14 8 17 19 3 14 12 18 33 15 16 -2 23
-1 17 2 -7 3 -13 12 -13 20 0 10 8 12 32 7 22 -4 29 -3 24 5 -4 7 -1 12 9 12
9 0 19 -9 22 -19 6 -25 33 -36 33 -14 0 12 3 13 14 4 12 -10 21 -6 48 18 l33
30 -34 1 c-28 0 -32 3 -26 17 19 45 18 52 -7 49 -14 -2 -31 -7 -38 -11 -19
-12 -61 -15 -54 -4 3 5 -2 12 -10 15 -9 3 -16 12 -16 20 0 17 -2 17 -31 1 -46
-24 -50 -28 -41 -40 7 -8 1 -20 -19 -38 -19 -17 -29 -22 -29 -13 0 8 -8 14
-18 14 -19 0 -46 24 -53 48 -3 10 -9 9 -24 -3 -17 -15 -18 -16 -2 -11 10 3 15
2 12 -3 -3 -6 3 -14 12 -20 17 -10 16 -10 -2 -11 -11 0 -28 9 -38 20 -9 11
-14 20 -11 20 3 0 -7 16 -21 35 -29 38 -27 52 7 53 50 2 81 15 56 24 -7 2 -26
0 -43 -6z m-75 -90 c0 -3 -4 -8 -10 -11 -5 -3 -10 -1 -10 4 0 6 5 11 10 11 6
0 10 -2 10 -4z m30 -85 c0 -5 -3 -11 -7 -13 -5 -1 -22 -20 -40 -40 -29 -34
-43 -39 -43 -15 0 6 3 8 6 5 8 -9 57 40 50 51 -3 5 0 12 6 14 20 8 28 8 28 -2z
m115 -41 c9 -15 -14 -40 -37 -40 -24 0 -33 23 -18 49 9 17 15 19 30 11 10 -6
22 -15 25 -20z"/>
<path d="M823 430 c-13 -5 -23 -14 -23 -20 0 -12 35 3 45 20 7 12 7 12 -22 0z"/>
<path d="M865 431 c-3 -5 0 -13 6 -17 7 -4 9 -3 5 4 -3 6 2 13 11 15 16 4 16
5 1 6 -9 0 -19 -3 -23 -8z"/>
<path d="M2097 413 c-14 -17 -14 -18 7 -18 14 0 22 6 22 18 0 9 -3 17 -7 17
-3 0 -13 -8 -22 -17z"/>
<path d="M1010 400 c-13 -8 -12 -10 3 -10 9 0 17 5 17 10 0 12 -1 12 -20 0z"/>
<path d="M3795 400 c-9 -15 45 -24 58 -10 9 10 7 11 -10 5 -14 -4 -23 -2 -23
4 0 14 -17 14 -25 1z"/>
<path d="M2888 372 c-7 -26 2 -42 19 -35 9 4 21 -1 27 -9 9 -13 21 -14 54 -8
23 4 39 4 37 0 -3 -5 2 -10 10 -13 17 -7 10 15 -17 52 -14 19 -20 22 -31 13
-11 -9 -24 -9 -55 2 -36 13 -40 13 -44 -2z"/>
<path d="M508 373 c6 -2 18 -2 25 0 6 3 1 5 -13 5 -14 0 -19 -2 -12 -5z"/>
<path d="M670 320 c-8 -5 -10 -10 -5 -10 6 0 17 5 25 10 8 5 11 10 5 10 -5 0
-17 -5 -25 -10z"/>
<path d="M552 300 c-44 -10 -60 -26 -44 -42 9 -9 15 -9 20 -2 4 5 22 16 40 23
17 8 32 17 32 22 0 10 -2 10 -48 -1z"/>
<path d="M2994 297 c-10 -6 -22 -14 -25 -19 -3 -5 -16 -10 -27 -11 -27 -2 -27
-3 -1 -17 15 -8 24 -8 34 0 7 6 28 12 45 12 27 1 57 18 31 18 -5 0 -16 6 -23
14 -11 10 -19 11 -34 3z"/>
<path d="M591 260 c-9 -5 -4 -7 13 -7 29 0 32 2 13 10 -8 3 -20 2 -26 -3z"/>
<path d="M1525 226 c-11 -8 -14 -15 -8 -19 6 -4 16 0 23 8 17 21 8 28 -15 11z"/>
<path d="M2880 212 c-21 -10 -22 -42 -1 -68 l18 -23 20 22 c11 13 18 28 16 34
-2 6 6 13 18 16 11 3 19 10 16 14 -7 11 -67 14 -87 5z"/>
<path d="M1991 153 c10 -11 10 -14 2 -9 -8 4 -13 1 -13 -8 0 -12 10 -15 40
-14 22 1 40 5 40 9 0 13 -43 39 -63 39 -17 0 -18 -2 -6 -17z"/>
<path d="M372 129 c-17 -21 -30 -28 -45 -24 -25 6 -60 -13 -40 -22 9 -3 8 -11
-4 -29 l-16 -25 44 5 c24 2 55 9 69 15 l25 11 -25 -4 c-30 -6 -70 3 -70 15 0
5 10 9 23 9 13 0 34 11 47 25 13 14 20 25 16 25 -5 0 -3 7 4 15 7 8 9 15 4 14
-5 0 -19 -13 -32 -30z"/>
<path d="M688 146 c-20 -14 -23 -32 -9 -41 5 -3 16 8 24 25 17 32 12 37 -15
16z"/>
<path d="M1535 150 c-3 -5 -1 -10 4 -10 6 0 11 5 11 10 0 6 -2 10 -4 10 -3 0
-8 -4 -11 -10z"/>
<path d="M1332 113 c-10 -4 -10 -8 -2 -19 14 -16 -3 -80 -23 -88 -7 -2 11 -5
38 -5 40 -1 53 3 63 19 7 12 8 20 2 20 -6 0 -15 11 -20 25 -6 16 -17 25 -31
25 -15 0 -19 5 -15 15 3 8 4 15 3 14 -1 0 -8 -3 -15 -6z"/>
<path d="M155 50 c-3 -5 3 -10 14 -10 12 0 21 5 21 10 0 6 -6 10 -14 10 -8 0
-18 -4 -21 -10z"/>
<path d="M140 20 c0 -5 7 -7 15 -4 8 4 15 8 15 10 0 2 -7 4 -15 4 -8 0 -15 -4
-15 -10z"/>
<path d="M615 20 c3 -5 8 -10 11 -10 2 0 4 5 4 10 0 6 -5 10 -11 10 -5 0 -7
-4 -4 -10z"/>
<path d="M1243 19 c-13 -5 -23 -10 -23 -12 0 -8 40 -5 46 4 9 15 2 18 -23 8z"/>
<path d="M560 9 c0 -5 9 -9 20 -9 11 0 20 2 20 4 0 2 -9 6 -20 9 -11 3 -20 1
-20 -4z"/>
<path d="M238 3 c6 -2 18 -2 25 0 6 3 1 5 -13 5 -14 0 -19 -2 -12 -5z"/>
</g>
</svg>
